<svg width="120" height="29" viewBox="0 0 120 29" fill="none" xmlns="http://www.w3.org/2000/svg">
<path d="M11.0868 2.5C11.6391 2.5 12.0868 2.94772 12.0868 3.5V3.732C12.0868 4.28429 11.6391 4.732 11.0868 4.732H8.64678C8.0945 4.732 7.64679 5.17972 7.64679 5.732V18.18C7.64679 18.7323 7.19907 19.18 6.64679 19.18H5.91079C5.3585 19.18 4.91079 18.7323 4.91079 18.18V5.732C4.91079 5.17972 4.46307 4.732 3.91079 4.732H1.44679C0.8945 4.732 0.446785 4.28429 0.446785 3.732V3.5C0.446785 2.94771 0.8945 2.5 1.44678 2.5H11.0868Z" fill="#7F56D9"/>
<path d="M12.0868 11.1902C12.0868 11.6111 12.7323 11.822 13.0574 11.5547C13.2476 11.3982 13.4521 11.2587 13.6708 11.136C14.0854 10.8991 14.5457 10.7352 15.0516 10.6445C15.5952 10.547 16.0468 11.0077 16.0468 11.56V12.696C16.0468 13.0804 15.7352 13.392 15.3508 13.392C14.2788 13.392 13.4628 13.664 12.9028 14.208C12.3588 14.752 12.0868 15.696 12.0868 17.04V23C12.0868 23.5523 11.6391 24 11.0868 24H10.3508C9.7985 24 9.35078 23.5523 9.35078 23V11.776C9.35078 11.2237 9.7985 10.776 10.3508 10.776H11.6726C11.9013 10.776 12.0868 10.9614 12.0868 11.1902Z" fill="#7F56D9"/>
<path d="M30.6817 17.064C30.6817 17.235 30.6779 17.4003 30.6703 17.5599C30.6469 18.0507 30.2243 18.408 29.733 18.408H21.5603C20.9783 18.408 20.5033 18.912 20.6882 19.4639C20.883 20.0455 21.2062 20.5415 21.6577 20.952C22.3617 21.592 23.2257 21.912 24.2497 21.912C25.4911 21.912 26.4253 21.4739 27.0522 20.5976C27.2737 20.2881 27.6107 20.064 27.9914 20.064H28.9401C29.621 20.064 30.1007 20.7353 29.7476 21.3175C29.3422 21.986 28.8055 22.5682 28.1377 23.064C27.0977 23.832 25.8017 24.216 24.2497 24.216C22.9857 24.216 21.8497 23.936 20.8417 23.376C19.8497 22.8 19.0657 22 18.4897 20.976C17.9297 19.936 17.6497 18.736 17.6497 17.376C17.6497 16.016 17.9217 14.824 18.4657 13.8C19.0257 12.76 19.8017 11.96 20.7937 11.4C21.8017 10.84 22.9537 10.56 24.2497 10.56C25.4977 10.56 26.6097 10.832 27.5857 11.376C28.5617 11.92 29.3217 12.688 29.8657 13.68C30.4097 14.656 30.6817 15.784 30.6817 17.064ZM26.8097 16.2C27.3682 16.2 27.8389 15.7327 27.6774 15.1981C27.5093 14.6412 27.1987 14.1672 26.7457 13.776C26.0417 13.168 25.1697 12.864 24.1297 12.864C23.1857 12.864 22.3777 13.168 21.7057 13.776C21.295 14.1378 20.9859 14.5803 20.7784 15.1035C20.5566 15.6627 21.037 16.2 21.6385 16.2H26.8097Z" fill="#7F56D9"/>
<path d="M40.0462 10.56C41.0862 10.56 42.0142 10.776 42.8302 11.208C43.6622 11.64 44.3102 12.28 44.7742 13.128C45.2382 13.976 45.4702 15 45.4702 16.2V23C45.4702 23.5523 45.0225 24 44.4702 24H43.7582C43.2059 24 42.7582 23.5523 42.7582 23V16.608C42.7582 15.424 42.4622 14.52 41.8702 13.896C41.2782 13.256 40.4702 12.936 39.4462 12.936C38.4222 12.936 37.6062 13.256 36.9982 13.896C36.4062 14.52 36.1102 15.424 36.1102 16.608V23C36.1102 23.5523 35.6625 24 35.1102 24H34.3742C33.8219 24 33.3742 23.5523 33.3742 23V11.776C33.3742 11.2237 33.8219 10.776 34.3742 10.776H35.711C35.9315 10.776 36.1102 10.9547 36.1102 11.1752C36.1102 11.5498 36.6157 11.7479 36.9187 11.5278C37.1904 11.3303 37.4889 11.1597 37.8142 11.016C38.5182 10.712 39.2622 10.56 40.0462 10.56Z" fill="#7F56D9"/>
<path d="M48.0482 17.328C48.0482 16 48.3202 14.824 48.8642 13.8C49.4242 12.776 50.1762 11.984 51.1202 11.424C52.0802 10.848 53.1442 10.56 54.3122 10.56C55.1762 10.56 56.0242 10.752 56.8562 11.136C56.9961 11.1967 57.1313 11.261 57.2617 11.3287C58.0061 11.7153 59.1482 11.4115 59.3344 10.5937L61.455 1.27803C61.5586 0.82291 61.9633 0.5 62.4301 0.5H63.2678C63.8664 0.5 64.3308 1.02222 64.261 1.61665L61.7359 23.1166C61.6767 23.6203 61.2499 24 60.7427 24H59.3496C59.0859 24 58.8722 23.7862 58.8722 23.5226C58.8722 23.0558 58.1902 22.8054 57.8158 23.0843C57.568 23.2688 57.2961 23.4381 57.0002 23.592C56.2162 24.008 55.3122 24.216 54.2882 24.216C53.1362 24.216 52.0802 23.928 51.1202 23.352C50.1762 22.76 49.4242 21.944 48.8642 20.904C48.3202 19.848 48.0482 18.656 48.0482 17.328ZM58.8722 17.376C58.8722 16.464 58.6802 15.672 58.2962 15C57.9282 14.328 57.4402 13.816 56.8322 13.464C56.2242 13.112 55.5682 12.936 54.8642 12.936C54.1602 12.936 53.5042 13.112 52.8962 13.464C52.2882 13.8 51.7922 14.304 51.4082 14.976C51.0402 15.632 50.8562 16.416 50.8562 17.328C50.8562 18.24 51.0402 19.04 51.4082 19.728C51.7922 20.416 52.2882 20.944 52.8962 21.312C53.5202 21.664 54.1762 21.84 54.8642 21.84C55.5682 21.84 56.2242 21.664 56.8322 21.312C57.4402 20.96 57.9282 20.448 58.2962 19.776C58.6802 19.088 58.8722 18.288 58.8722 17.376Z" fill="#7F56D9"/>
<path d="M81.7938 11.376C82.3461 11.376 82.7938 11.8237 82.7938 12.376V27.056C82.7938 27.6083 82.3461 28.056 81.7938 28.056H81.0578C80.5055 28.056 80.0578 27.6083 80.0578 27.056V21.3352C80.0578 20.2555 78.5835 19.9421 78.1443 20.9283L75.234 27.4628C75.0733 27.8236 74.7154 28.056 74.3205 28.056H73.7218C73.3276 28.056 72.9701 27.8243 72.8091 27.4644L69.8745 20.9066C69.434 19.922 67.9618 20.2363 67.9618 21.315V27.056C67.9618 27.6083 67.5141 28.056 66.9618 28.056H66.2258C65.6735 28.056 65.2258 27.6083 65.2258 27.056V12.376C65.2258 11.8237 65.6735 11.376 66.2258 11.376H67.5298C67.924 11.376 68.2815 11.6076 68.4425 11.9674L73.1192 22.4132C73.4725 23.2023 74.5931 23.2015 74.9452 22.4118L79.6015 11.9688C79.7622 11.6082 80.12 11.376 80.5148 11.376H81.7938Z" fill="#7F56D9"/>
<path d="M85.4778 17.328C85.4778 16 85.7498 14.824 86.2938 13.8C86.8538 12.776 87.6058 11.984 88.5498 11.424C89.5098 10.848 90.5658 10.56 91.7178 10.56C92.7578 10.56 93.6618 10.768 94.4298 11.184C94.7361 11.3403 95.018 11.5124 95.2754 11.7004C95.6502 11.9741 96.3018 11.725 96.3018 11.261C96.3018 10.9931 96.519 10.776 96.7868 10.776H98.0618C98.6141 10.776 99.0618 11.2237 99.0618 11.776V23C99.0618 23.5523 98.6141 24 98.0618 24H96.7913C96.521 24 96.3018 23.7809 96.3018 23.5105C96.3018 23.0391 95.6324 22.7865 95.2533 23.0667C94.9956 23.2571 94.7131 23.4322 94.4058 23.592C93.6058 24.008 92.6938 24.216 91.6698 24.216C90.5338 24.216 89.4938 23.928 88.5498 23.352C87.6058 22.76 86.8538 21.944 86.2938 20.904C85.7498 19.848 85.4778 18.656 85.4778 17.328ZM96.3018 17.376C96.3018 16.464 96.1098 15.672 95.7258 15C95.3578 14.328 94.8698 13.816 94.2618 13.464C93.6538 13.112 92.9978 12.936 92.2938 12.936C91.5898 12.936 90.9338 13.112 90.3258 13.464C89.7178 13.8 89.2218 14.304 88.8378 14.976C88.4698 15.632 88.2858 16.416 88.2858 17.328C88.2858 18.24 88.4698 19.04 88.8378 19.728C89.2218 20.416 89.7178 20.944 90.3258 21.312C90.9498 21.664 91.6058 21.84 92.2938 21.84C92.9978 21.84 93.6538 21.664 94.2618 21.312C94.8698 20.96 95.3578 20.448 95.7258 19.776C96.1098 19.088 96.3018 18.288 96.3018 17.376Z" fill="#7F56D9"/>
<path d="M105.391 11.1902C105.391 11.6111 106.037 11.822 106.362 11.5547C106.552 11.3982 106.757 11.2587 106.975 11.136C107.39 10.8991 107.85 10.7352 108.356 10.6445C108.9 10.547 109.351 11.0077 109.351 11.56V12.696C109.351 13.0804 109.04 13.392 108.655 13.392C107.583 13.392 106.767 13.664 106.207 14.208C105.663 14.752 105.391 15.696 105.391 17.04V23C105.391 23.5523 104.944 24 104.391 24H103.655C103.103 24 102.655 23.5523 102.655 23V11.776C102.655 11.2237 103.103 10.776 103.655 10.776H104.977C105.206 10.776 105.391 10.9614 105.391 11.1902Z" fill="#7F56D9"/>
<path d="M116.058 13.008C115.506 13.008 115.058 13.4557 115.058 14.008V20.328C115.058 20.824 115.17 21.184 115.394 21.408C115.634 21.616 116.034 21.72 116.594 21.72H117.274C117.827 21.72 118.274 22.1677 118.274 22.72V23C118.274 23.5523 117.827 24 117.274 24H116.114C114.882 24 113.938 23.712 113.282 23.136C112.626 22.56 112.298 21.624 112.298 20.328V13.788C112.298 13.3572 111.949 13.008 111.518 13.008C111.088 13.008 110.738 12.6588 110.738 12.228V11.556C110.738 11.1252 111.088 10.776 111.518 10.776C111.949 10.776 112.298 10.4268 112.298 9.99599V4C112.298 3.44772 112.746 3 113.298 3H114.058C114.611 3 115.058 3.44772 115.058 4V9.77599C115.058 10.3283 115.506 10.776 116.058 10.776H117.274C117.827 10.776 118.274 11.2237 118.274 11.776V12.008C118.274 12.5603 117.827 13.008 117.274 13.008H116.058Z" fill="#7F56D9"/>
</svg>
